<mxfile host="app.diagrams.net" modified="2022-04-13T23:37:45.352Z" agent="5.0 (Macintosh; Intel Mac OS X 10_15_7) AppleWebKit/537.36 (KHTML, like Gecko) Chrome/100.0.4896.88 Safari/537.36" etag="ExZ9kIBzqKYSALDggQ8h" version="17.4.3" type="github" pages="3">
  <diagram id="C5RBs43oDa-KdzZeNtuy" name="Page-1">
    <mxGraphModel dx="946" dy="614" grid="1" gridSize="10" guides="1" tooltips="1" connect="1" arrows="1" fold="1" page="1" pageScale="1" pageWidth="827" pageHeight="1169" math="0" shadow="0">
      <root>
        <mxCell id="WIyWlLk6GJQsqaUBKTNV-0" />
        <mxCell id="WIyWlLk6GJQsqaUBKTNV-1" parent="WIyWlLk6GJQsqaUBKTNV-0" />
        <mxCell id="zkfFHV4jXpPFQw0GAbJ--0" value="NotificationUser" style="swimlane;fontStyle=2;align=center;verticalAlign=top;childLayout=stackLayout;horizontal=1;startSize=26;horizontalStack=0;resizeParent=1;resizeLast=0;collapsible=1;marginBottom=0;rounded=0;shadow=0;strokeWidth=1;" parent="WIyWlLk6GJQsqaUBKTNV-1" vertex="1">
          <mxGeometry x="120" y="120" width="200" height="312" as="geometry">
            <mxRectangle x="220" y="120" width="160" height="26" as="alternateBounds" />
          </mxGeometry>
        </mxCell>
        <mxCell id="zkfFHV4jXpPFQw0GAbJ--1" value="objectId: string" style="text;align=left;verticalAlign=top;spacingLeft=4;spacingRight=4;overflow=hidden;rotatable=0;points=[[0,0.5],[1,0.5]];portConstraint=eastwest;" parent="zkfFHV4jXpPFQw0GAbJ--0" vertex="1">
          <mxGeometry y="26" width="200" height="26" as="geometry" />
        </mxCell>
        <mxCell id="zkfFHV4jXpPFQw0GAbJ--2" value="ACL: ACL" style="text;align=left;verticalAlign=top;spacingLeft=4;spacingRight=4;overflow=hidden;rotatable=0;points=[[0,0.5],[1,0.5]];portConstraint=eastwest;rounded=0;shadow=0;html=0;" parent="zkfFHV4jXpPFQw0GAbJ--0" vertex="1">
          <mxGeometry y="52" width="200" height="26" as="geometry" />
        </mxCell>
        <mxCell id="zkfFHV4jXpPFQw0GAbJ--3" value="name: string" style="text;align=left;verticalAlign=top;spacingLeft=4;spacingRight=4;overflow=hidden;rotatable=0;points=[[0,0.5],[1,0.5]];portConstraint=eastwest;rounded=0;shadow=0;html=0;" parent="zkfFHV4jXpPFQw0GAbJ--0" vertex="1">
          <mxGeometry y="78" width="200" height="26" as="geometry" />
        </mxCell>
        <mxCell id="_b7r_BlePig6I2XJuGWM-3" value="notes: string" style="text;align=left;verticalAlign=top;spacingLeft=4;spacingRight=4;overflow=hidden;rotatable=0;points=[[0,0.5],[1,0.5]];portConstraint=eastwest;rounded=0;shadow=0;html=0;" vertex="1" parent="zkfFHV4jXpPFQw0GAbJ--0">
          <mxGeometry y="104" width="200" height="26" as="geometry" />
        </mxCell>
        <mxCell id="_b7r_BlePig6I2XJuGWM-4" value="registrationStep: number" style="text;align=left;verticalAlign=top;spacingLeft=4;spacingRight=4;overflow=hidden;rotatable=0;points=[[0,0.5],[1,0.5]];portConstraint=eastwest;rounded=0;shadow=0;html=0;" vertex="1" parent="zkfFHV4jXpPFQw0GAbJ--0">
          <mxGeometry y="130" width="200" height="26" as="geometry" />
        </mxCell>
        <mxCell id="_b7r_BlePig6I2XJuGWM-5" value="telegramUserId: string" style="text;align=left;verticalAlign=top;spacingLeft=4;spacingRight=4;overflow=hidden;rotatable=0;points=[[0,0.5],[1,0.5]];portConstraint=eastwest;rounded=0;shadow=0;html=0;" vertex="1" parent="zkfFHV4jXpPFQw0GAbJ--0">
          <mxGeometry y="156" width="200" height="26" as="geometry" />
        </mxCell>
        <mxCell id="_b7r_BlePig6I2XJuGWM-6" value="notifications: Array&lt;Notification&gt;" style="text;align=left;verticalAlign=top;spacingLeft=4;spacingRight=4;overflow=hidden;rotatable=0;points=[[0,0.5],[1,0.5]];portConstraint=eastwest;rounded=0;shadow=0;html=0;" vertex="1" parent="zkfFHV4jXpPFQw0GAbJ--0">
          <mxGeometry y="182" width="200" height="26" as="geometry" />
        </mxCell>
        <mxCell id="_b7r_BlePig6I2XJuGWM-7" value="phone: string" style="text;align=left;verticalAlign=top;spacingLeft=4;spacingRight=4;overflow=hidden;rotatable=0;points=[[0,0.5],[1,0.5]];portConstraint=eastwest;rounded=0;shadow=0;html=0;" vertex="1" parent="zkfFHV4jXpPFQw0GAbJ--0">
          <mxGeometry y="208" width="200" height="26" as="geometry" />
        </mxCell>
        <mxCell id="_b7r_BlePig6I2XJuGWM-8" value="location: GeoPoint" style="text;align=left;verticalAlign=top;spacingLeft=4;spacingRight=4;overflow=hidden;rotatable=0;points=[[0,0.5],[1,0.5]];portConstraint=eastwest;rounded=0;shadow=0;html=0;" vertex="1" parent="zkfFHV4jXpPFQw0GAbJ--0">
          <mxGeometry y="234" width="200" height="26" as="geometry" />
        </mxCell>
        <mxCell id="_b7r_BlePig6I2XJuGWM-9" value="type: string" style="text;align=left;verticalAlign=top;spacingLeft=4;spacingRight=4;overflow=hidden;rotatable=0;points=[[0,0.5],[1,0.5]];portConstraint=eastwest;rounded=0;shadow=0;html=0;" vertex="1" parent="zkfFHV4jXpPFQw0GAbJ--0">
          <mxGeometry y="260" width="200" height="26" as="geometry" />
        </mxCell>
        <mxCell id="_b7r_BlePig6I2XJuGWM-10" value="hotels: Array&lt;Hotel&gt;" style="text;align=left;verticalAlign=top;spacingLeft=4;spacingRight=4;overflow=hidden;rotatable=0;points=[[0,0.5],[1,0.5]];portConstraint=eastwest;rounded=0;shadow=0;html=0;" vertex="1" parent="zkfFHV4jXpPFQw0GAbJ--0">
          <mxGeometry y="286" width="200" height="26" as="geometry" />
        </mxCell>
        <mxCell id="zkfFHV4jXpPFQw0GAbJ--13" value="NotificationGroup" style="swimlane;fontStyle=0;align=center;verticalAlign=top;childLayout=stackLayout;horizontal=1;startSize=26;horizontalStack=0;resizeParent=1;resizeLast=0;collapsible=1;marginBottom=0;rounded=0;shadow=0;strokeWidth=1;" parent="WIyWlLk6GJQsqaUBKTNV-1" vertex="1">
          <mxGeometry x="540" y="330" width="200" height="104" as="geometry">
            <mxRectangle x="340" y="380" width="170" height="26" as="alternateBounds" />
          </mxGeometry>
        </mxCell>
        <mxCell id="zkfFHV4jXpPFQw0GAbJ--14" value="objectId: string" style="text;align=left;verticalAlign=top;spacingLeft=4;spacingRight=4;overflow=hidden;rotatable=0;points=[[0,0.5],[1,0.5]];portConstraint=eastwest;" parent="zkfFHV4jXpPFQw0GAbJ--13" vertex="1">
          <mxGeometry y="26" width="200" height="26" as="geometry" />
        </mxCell>
        <mxCell id="_b7r_BlePig6I2XJuGWM-12" value="ACL: ACL" style="text;align=left;verticalAlign=top;spacingLeft=4;spacingRight=4;overflow=hidden;rotatable=0;points=[[0,0.5],[1,0.5]];portConstraint=eastwest;" vertex="1" parent="zkfFHV4jXpPFQw0GAbJ--13">
          <mxGeometry y="52" width="200" height="26" as="geometry" />
        </mxCell>
        <mxCell id="_b7r_BlePig6I2XJuGWM-13" value="name: string" style="text;align=left;verticalAlign=top;spacingLeft=4;spacingRight=4;overflow=hidden;rotatable=0;points=[[0,0.5],[1,0.5]];portConstraint=eastwest;" vertex="1" parent="zkfFHV4jXpPFQw0GAbJ--13">
          <mxGeometry y="78" width="200" height="26" as="geometry" />
        </mxCell>
        <mxCell id="zkfFHV4jXpPFQw0GAbJ--17" value="Notification" style="swimlane;fontStyle=0;align=center;verticalAlign=top;childLayout=stackLayout;horizontal=1;startSize=26;horizontalStack=0;resizeParent=1;resizeLast=0;collapsible=1;marginBottom=0;rounded=0;shadow=0;strokeWidth=1;" parent="WIyWlLk6GJQsqaUBKTNV-1" vertex="1">
          <mxGeometry x="540" y="120" width="200" height="190" as="geometry">
            <mxRectangle x="550" y="140" width="160" height="26" as="alternateBounds" />
          </mxGeometry>
        </mxCell>
        <mxCell id="zkfFHV4jXpPFQw0GAbJ--18" value="objectId: string" style="text;align=left;verticalAlign=top;spacingLeft=4;spacingRight=4;overflow=hidden;rotatable=0;points=[[0,0.5],[1,0.5]];portConstraint=eastwest;" parent="zkfFHV4jXpPFQw0GAbJ--17" vertex="1">
          <mxGeometry y="26" width="200" height="26" as="geometry" />
        </mxCell>
        <mxCell id="zkfFHV4jXpPFQw0GAbJ--19" value="ACL: ACL" style="text;align=left;verticalAlign=top;spacingLeft=4;spacingRight=4;overflow=hidden;rotatable=0;points=[[0,0.5],[1,0.5]];portConstraint=eastwest;rounded=0;shadow=0;html=0;" parent="zkfFHV4jXpPFQw0GAbJ--17" vertex="1">
          <mxGeometry y="52" width="200" height="26" as="geometry" />
        </mxCell>
        <mxCell id="zkfFHV4jXpPFQw0GAbJ--20" value="name: string" style="text;align=left;verticalAlign=top;spacingLeft=4;spacingRight=4;overflow=hidden;rotatable=0;points=[[0,0.5],[1,0.5]];portConstraint=eastwest;rounded=0;shadow=0;html=0;" parent="zkfFHV4jXpPFQw0GAbJ--17" vertex="1">
          <mxGeometry y="78" width="200" height="26" as="geometry" />
        </mxCell>
        <mxCell id="zkfFHV4jXpPFQw0GAbJ--21" value="msg: string" style="text;align=left;verticalAlign=top;spacingLeft=4;spacingRight=4;overflow=hidden;rotatable=0;points=[[0,0.5],[1,0.5]];portConstraint=eastwest;rounded=0;shadow=0;html=0;" parent="zkfFHV4jXpPFQw0GAbJ--17" vertex="1">
          <mxGeometry y="104" width="200" height="26" as="geometry" />
        </mxCell>
        <mxCell id="zkfFHV4jXpPFQw0GAbJ--22" value="level: number" style="text;align=left;verticalAlign=top;spacingLeft=4;spacingRight=4;overflow=hidden;rotatable=0;points=[[0,0.5],[1,0.5]];portConstraint=eastwest;rounded=0;shadow=0;html=0;" parent="zkfFHV4jXpPFQw0GAbJ--17" vertex="1">
          <mxGeometry y="130" width="200" height="26" as="geometry" />
        </mxCell>
        <mxCell id="_b7r_BlePig6I2XJuGWM-11" value="group: Pointer&lt;NotificationGroup&gt;" style="text;align=left;verticalAlign=top;spacingLeft=4;spacingRight=4;overflow=hidden;rotatable=0;points=[[0,0.5],[1,0.5]];portConstraint=eastwest;rounded=0;shadow=0;html=0;" vertex="1" parent="zkfFHV4jXpPFQw0GAbJ--17">
          <mxGeometry y="156" width="200" height="26" as="geometry" />
        </mxCell>
      </root>
    </mxGraphModel>
  </diagram>
  <diagram id="52Rk-Qp5oO0sFc5-50Op" name="Page-2">
    <mxGraphModel dx="946" dy="614" grid="1" gridSize="10" guides="1" tooltips="1" connect="1" arrows="1" fold="1" page="1" pageScale="1" pageWidth="1200" pageHeight="1600" math="0" shadow="0">
      <root>
        <mxCell id="0" />
        <mxCell id="1" parent="0" />
        <mxCell id="zsXKY6zXkxeb3GYcDedS-1" value="Notification Manager" style="ellipse;whiteSpace=wrap;html=1;" vertex="1" parent="1">
          <mxGeometry x="50" y="260" width="310" height="310" as="geometry" />
        </mxCell>
        <mxCell id="zsXKY6zXkxeb3GYcDedS-3" value="Notification Sander" style="ellipse;whiteSpace=wrap;html=1;" vertex="1" parent="1">
          <mxGeometry x="500" y="310" width="310" height="310" as="geometry" />
        </mxCell>
        <mxCell id="zsXKY6zXkxeb3GYcDedS-4" value="Tray" style="shape=cube;whiteSpace=wrap;html=1;boundedLbl=1;backgroundOutline=1;darkOpacity=0.05;darkOpacity2=0.1;size=10;rotation=0;" vertex="1" parent="1">
          <mxGeometry x="10" y="10" width="120" height="120" as="geometry" />
        </mxCell>
        <mxCell id="zsXKY6zXkxeb3GYcDedS-5" value="Minibar" style="shape=cube;whiteSpace=wrap;html=1;boundedLbl=1;backgroundOutline=1;darkOpacity=0.05;darkOpacity2=0.1;size=10;rotation=0;" vertex="1" parent="1">
          <mxGeometry x="140" y="10" width="120" height="120" as="geometry" />
        </mxCell>
        <mxCell id="zsXKY6zXkxeb3GYcDedS-6" value="Transaction" style="shape=cube;whiteSpace=wrap;html=1;boundedLbl=1;backgroundOutline=1;darkOpacity=0.05;darkOpacity2=0.1;size=10;rotation=0;" vertex="1" parent="1">
          <mxGeometry x="400" y="10" width="120" height="120" as="geometry" />
        </mxCell>
        <mxCell id="zsXKY6zXkxeb3GYcDedS-7" value="Towel" style="shape=cube;whiteSpace=wrap;html=1;boundedLbl=1;backgroundOutline=1;darkOpacity=0.05;darkOpacity2=0.1;size=10;rotation=0;" vertex="1" parent="1">
          <mxGeometry x="270" y="10" width="120" height="120" as="geometry" />
        </mxCell>
        <mxCell id="zsXKY6zXkxeb3GYcDedS-8" value="" style="endArrow=classic;html=1;rounded=0;exitX=0;exitY=0;exitDx=65;exitDy=120;exitPerimeter=0;entryX=0.271;entryY=0.061;entryDx=0;entryDy=0;entryPerimeter=0;" edge="1" parent="1" source="zsXKY6zXkxeb3GYcDedS-4" target="zsXKY6zXkxeb3GYcDedS-1">
          <mxGeometry relative="1" as="geometry">
            <mxPoint x="70" y="180" as="sourcePoint" />
            <mxPoint x="170" y="180" as="targetPoint" />
          </mxGeometry>
        </mxCell>
        <mxCell id="zsXKY6zXkxeb3GYcDedS-9" value="" style="shape=message;html=1;outlineConnect=0;" vertex="1" parent="zsXKY6zXkxeb3GYcDedS-8">
          <mxGeometry width="20" height="14" relative="1" as="geometry">
            <mxPoint x="-10" y="-7" as="offset" />
          </mxGeometry>
        </mxCell>
        <mxCell id="zsXKY6zXkxeb3GYcDedS-10" value="" style="endArrow=classic;html=1;rounded=0;exitX=0;exitY=0;exitDx=65;exitDy=120;exitPerimeter=0;entryX=0.387;entryY=0.01;entryDx=0;entryDy=0;entryPerimeter=0;" edge="1" parent="1" source="zsXKY6zXkxeb3GYcDedS-5" target="zsXKY6zXkxeb3GYcDedS-1">
          <mxGeometry relative="1" as="geometry">
            <mxPoint x="85" y="140" as="sourcePoint" />
            <mxPoint x="165.39844891608504" y="295.39844891608504" as="targetPoint" />
          </mxGeometry>
        </mxCell>
        <mxCell id="zsXKY6zXkxeb3GYcDedS-11" value="" style="shape=message;html=1;outlineConnect=0;" vertex="1" parent="zsXKY6zXkxeb3GYcDedS-10">
          <mxGeometry width="20" height="14" relative="1" as="geometry">
            <mxPoint x="-10" y="-7" as="offset" />
          </mxGeometry>
        </mxCell>
        <mxCell id="zsXKY6zXkxeb3GYcDedS-12" value="" style="endArrow=classic;html=1;rounded=0;exitX=0;exitY=0;exitDx=65;exitDy=120;exitPerimeter=0;entryX=0.642;entryY=0.019;entryDx=0;entryDy=0;entryPerimeter=0;" edge="1" parent="1" source="zsXKY6zXkxeb3GYcDedS-7" target="zsXKY6zXkxeb3GYcDedS-1">
          <mxGeometry relative="1" as="geometry">
            <mxPoint x="215" y="140" as="sourcePoint" />
            <mxPoint x="275" y="250" as="targetPoint" />
          </mxGeometry>
        </mxCell>
        <mxCell id="zsXKY6zXkxeb3GYcDedS-13" value="" style="shape=message;html=1;outlineConnect=0;" vertex="1" parent="zsXKY6zXkxeb3GYcDedS-12">
          <mxGeometry width="20" height="14" relative="1" as="geometry">
            <mxPoint x="-10" y="-7" as="offset" />
          </mxGeometry>
        </mxCell>
        <mxCell id="zsXKY6zXkxeb3GYcDedS-14" value="" style="endArrow=classic;html=1;rounded=0;exitX=0;exitY=0;exitDx=65;exitDy=120;exitPerimeter=0;entryX=1;entryY=0;entryDx=0;entryDy=0;" edge="1" parent="1" source="zsXKY6zXkxeb3GYcDedS-6" target="zsXKY6zXkxeb3GYcDedS-1">
          <mxGeometry relative="1" as="geometry">
            <mxPoint x="345" y="140" as="sourcePoint" />
            <mxPoint x="275" y="250" as="targetPoint" />
          </mxGeometry>
        </mxCell>
        <mxCell id="zsXKY6zXkxeb3GYcDedS-15" value="" style="shape=message;html=1;outlineConnect=0;" vertex="1" parent="zsXKY6zXkxeb3GYcDedS-14">
          <mxGeometry width="20" height="14" relative="1" as="geometry">
            <mxPoint x="-10" y="-7" as="offset" />
          </mxGeometry>
        </mxCell>
        <mxCell id="zsXKY6zXkxeb3GYcDedS-16" value="Outer Space" style="ellipse;shape=cloud;whiteSpace=wrap;html=1;" vertex="1" parent="1">
          <mxGeometry x="930" y="600" width="270" height="180" as="geometry" />
        </mxCell>
        <mxCell id="zsXKY6zXkxeb3GYcDedS-17" value="" style="endArrow=classic;html=1;rounded=0;exitX=1;exitY=0.5;exitDx=0;exitDy=0;entryX=0.4;entryY=0.1;entryDx=0;entryDy=0;entryPerimeter=0;" edge="1" parent="1" source="zsXKY6zXkxeb3GYcDedS-3" target="zsXKY6zXkxeb3GYcDedS-16">
          <mxGeometry relative="1" as="geometry">
            <mxPoint x="890" y="244.5" as="sourcePoint" />
            <mxPoint x="990" y="244.5" as="targetPoint" />
          </mxGeometry>
        </mxCell>
        <mxCell id="zsXKY6zXkxeb3GYcDedS-18" value="" style="shape=message;html=1;outlineConnect=0;" vertex="1" parent="zsXKY6zXkxeb3GYcDedS-17">
          <mxGeometry width="20" height="14" relative="1" as="geometry">
            <mxPoint x="-10" y="-7" as="offset" />
          </mxGeometry>
        </mxCell>
        <mxCell id="zsXKY6zXkxeb3GYcDedS-19" value="Telegram" style="edgeLabel;html=1;align=center;verticalAlign=middle;resizable=0;points=[];" vertex="1" connectable="0" parent="zsXKY6zXkxeb3GYcDedS-17">
          <mxGeometry x="-0.2274" relative="1" as="geometry">
            <mxPoint x="-22" y="-14" as="offset" />
          </mxGeometry>
        </mxCell>
        <mxCell id="zsXKY6zXkxeb3GYcDedS-20" value="" style="endArrow=classic;html=1;rounded=0;exitX=1;exitY=1;exitDx=0;exitDy=0;entryX=0.07;entryY=0.4;entryDx=0;entryDy=0;entryPerimeter=0;" edge="1" parent="1" source="zsXKY6zXkxeb3GYcDedS-3" target="zsXKY6zXkxeb3GYcDedS-16">
          <mxGeometry relative="1" as="geometry">
            <mxPoint x="790" y="300" as="sourcePoint" />
            <mxPoint x="890" y="300" as="targetPoint" />
          </mxGeometry>
        </mxCell>
        <mxCell id="zsXKY6zXkxeb3GYcDedS-21" value="" style="shape=message;html=1;outlineConnect=0;" vertex="1" parent="zsXKY6zXkxeb3GYcDedS-20">
          <mxGeometry width="20" height="14" relative="1" as="geometry">
            <mxPoint x="-10" y="-7" as="offset" />
          </mxGeometry>
        </mxCell>
        <mxCell id="zsXKY6zXkxeb3GYcDedS-22" value="SMS" style="edgeLabel;html=1;align=center;verticalAlign=middle;resizable=0;points=[];" vertex="1" connectable="0" parent="zsXKY6zXkxeb3GYcDedS-20">
          <mxGeometry x="-0.532" relative="1" as="geometry">
            <mxPoint as="offset" />
          </mxGeometry>
        </mxCell>
        <mxCell id="zsXKY6zXkxeb3GYcDedS-23" value="" style="endArrow=classic;html=1;rounded=0;exitX=0.965;exitY=0.69;exitDx=0;exitDy=0;exitPerimeter=0;entryX=0.25;entryY=0.25;entryDx=0;entryDy=0;entryPerimeter=0;" edge="1" parent="1" source="zsXKY6zXkxeb3GYcDedS-3" target="zsXKY6zXkxeb3GYcDedS-16">
          <mxGeometry relative="1" as="geometry">
            <mxPoint x="790" y="300" as="sourcePoint" />
            <mxPoint x="890" y="300" as="targetPoint" />
          </mxGeometry>
        </mxCell>
        <mxCell id="zsXKY6zXkxeb3GYcDedS-24" value="" style="shape=message;html=1;outlineConnect=0;" vertex="1" parent="zsXKY6zXkxeb3GYcDedS-23">
          <mxGeometry width="20" height="14" relative="1" as="geometry">
            <mxPoint x="-10" y="-7" as="offset" />
          </mxGeometry>
        </mxCell>
        <mxCell id="zsXKY6zXkxeb3GYcDedS-25" value="Email" style="edgeLabel;html=1;align=center;verticalAlign=middle;resizable=0;points=[];" vertex="1" connectable="0" parent="zsXKY6zXkxeb3GYcDedS-23">
          <mxGeometry x="-0.5843" relative="1" as="geometry">
            <mxPoint as="offset" />
          </mxGeometry>
        </mxCell>
        <mxCell id="zsXKY6zXkxeb3GYcDedS-26" value="" style="endArrow=classic;html=1;rounded=0;exitX=1;exitY=0.5;exitDx=0;exitDy=0;entryX=0;entryY=0.5;entryDx=0;entryDy=0;" edge="1" parent="1" source="zsXKY6zXkxeb3GYcDedS-1" target="zsXKY6zXkxeb3GYcDedS-3">
          <mxGeometry width="50" height="50" relative="1" as="geometry">
            <mxPoint x="630" y="340" as="sourcePoint" />
            <mxPoint x="680" y="290" as="targetPoint" />
          </mxGeometry>
        </mxCell>
      </root>
    </mxGraphModel>
  </diagram>
  <diagram id="MJPNFhSHubLkFkieIWtd" name="Towel Manager">
    <mxGraphModel dx="946" dy="614" grid="1" gridSize="10" guides="1" tooltips="1" connect="1" arrows="1" fold="1" page="1" pageScale="1" pageWidth="2500" pageHeight="2500" math="0" shadow="0">
      <root>
        <mxCell id="0" />
        <mxCell id="1" parent="0" />
        <mxCell id="4zOhWpi7Tp3pZV_hhRQo-51" style="edgeStyle=orthogonalEdgeStyle;rounded=0;orthogonalLoop=1;jettySize=auto;html=1;exitX=0.5;exitY=1;exitDx=0;exitDy=0;exitPerimeter=0;entryX=0.5;entryY=0;entryDx=0;entryDy=0;fontColor=#000000;" edge="1" parent="1" source="4zOhWpi7Tp3pZV_hhRQo-1" target="4zOhWpi7Tp3pZV_hhRQo-46">
          <mxGeometry relative="1" as="geometry" />
        </mxCell>
        <mxCell id="4zOhWpi7Tp3pZV_hhRQo-52" value="on RoomTowel remove" style="edgeLabel;html=1;align=center;verticalAlign=middle;resizable=0;points=[];fontColor=#000000;" vertex="1" connectable="0" parent="4zOhWpi7Tp3pZV_hhRQo-51">
          <mxGeometry x="-0.8247" y="1" relative="1" as="geometry">
            <mxPoint as="offset" />
          </mxGeometry>
        </mxCell>
        <mxCell id="4zOhWpi7Tp3pZV_hhRQo-69" style="edgeStyle=orthogonalEdgeStyle;rounded=0;orthogonalLoop=1;jettySize=auto;html=1;exitX=1;exitY=0.5;exitDx=0;exitDy=0;exitPerimeter=0;entryX=0.5;entryY=0;entryDx=0;entryDy=0;fontColor=#000000;" edge="1" parent="1" source="4zOhWpi7Tp3pZV_hhRQo-1" target="4zOhWpi7Tp3pZV_hhRQo-55">
          <mxGeometry relative="1" as="geometry" />
        </mxCell>
        <mxCell id="4zOhWpi7Tp3pZV_hhRQo-71" value="on Housekeeping create" style="edgeLabel;html=1;align=center;verticalAlign=middle;resizable=0;points=[];fontColor=#000000;" vertex="1" connectable="0" parent="4zOhWpi7Tp3pZV_hhRQo-69">
          <mxGeometry x="-0.8334" relative="1" as="geometry">
            <mxPoint y="1" as="offset" />
          </mxGeometry>
        </mxCell>
        <mxCell id="4zOhWpi7Tp3pZV_hhRQo-70" style="edgeStyle=orthogonalEdgeStyle;rounded=0;orthogonalLoop=1;jettySize=auto;html=1;exitX=1;exitY=1;exitDx=0;exitDy=-15;exitPerimeter=0;entryX=0.5;entryY=0;entryDx=0;entryDy=0;fontColor=#000000;" edge="1" parent="1" source="4zOhWpi7Tp3pZV_hhRQo-1" target="4zOhWpi7Tp3pZV_hhRQo-61">
          <mxGeometry relative="1" as="geometry" />
        </mxCell>
        <mxCell id="4zOhWpi7Tp3pZV_hhRQo-72" value="on Housekeeping remove" style="edgeLabel;html=1;align=center;verticalAlign=middle;resizable=0;points=[];fontColor=#000000;" vertex="1" connectable="0" parent="4zOhWpi7Tp3pZV_hhRQo-70">
          <mxGeometry x="-0.8216" y="3" relative="1" as="geometry">
            <mxPoint y="1" as="offset" />
          </mxGeometry>
        </mxCell>
        <mxCell id="4zOhWpi7Tp3pZV_hhRQo-1" value="Parse" style="shape=cylinder3;whiteSpace=wrap;html=1;boundedLbl=1;backgroundOutline=1;size=15;" vertex="1" parent="1">
          <mxGeometry x="740" y="30" width="90" height="90" as="geometry" />
        </mxCell>
        <mxCell id="4zOhWpi7Tp3pZV_hhRQo-2" value="is original?" style="rhombus;whiteSpace=wrap;html=1;" vertex="1" parent="1">
          <mxGeometry x="120" y="260" width="160" height="90" as="geometry" />
        </mxCell>
        <mxCell id="4zOhWpi7Tp3pZV_hhRQo-3" value="" style="endArrow=classic;html=1;rounded=0;exitX=0.5;exitY=1;exitDx=0;exitDy=0;exitPerimeter=0;entryX=0.5;entryY=0;entryDx=0;entryDy=0;" edge="1" parent="1" source="4zOhWpi7Tp3pZV_hhRQo-1" target="4zOhWpi7Tp3pZV_hhRQo-2">
          <mxGeometry width="50" height="50" relative="1" as="geometry">
            <mxPoint x="460" y="330" as="sourcePoint" />
            <mxPoint x="510" y="280" as="targetPoint" />
            <Array as="points">
              <mxPoint x="200" y="120" />
            </Array>
          </mxGeometry>
        </mxCell>
        <mxCell id="4zOhWpi7Tp3pZV_hhRQo-4" value="on RoomTowel create" style="edgeLabel;html=1;align=center;verticalAlign=middle;resizable=0;points=[];" vertex="1" connectable="0" parent="4zOhWpi7Tp3pZV_hhRQo-3">
          <mxGeometry x="-0.3161" relative="1" as="geometry">
            <mxPoint as="offset" />
          </mxGeometry>
        </mxCell>
        <mxCell id="4zOhWpi7Tp3pZV_hhRQo-5" value="Locker Manager ???&lt;br&gt;(need update locker in DB and send message to housekeeping for physical updating of locker and register cards for selected locker)&amp;nbsp;" style="ellipse;whiteSpace=wrap;html=1;" vertex="1" parent="1">
          <mxGeometry x="350" y="1100" width="230" height="230" as="geometry" />
        </mxCell>
        <mxCell id="4zOhWpi7Tp3pZV_hhRQo-12" style="edgeStyle=orthogonalEdgeStyle;rounded=0;orthogonalLoop=1;jettySize=auto;html=1;exitX=0.5;exitY=1;exitDx=0;exitDy=0;entryX=0.5;entryY=0;entryDx=0;entryDy=0;" edge="1" parent="1" source="4zOhWpi7Tp3pZV_hhRQo-6" target="4zOhWpi7Tp3pZV_hhRQo-14">
          <mxGeometry relative="1" as="geometry">
            <mxPoint x="200" y="510" as="targetPoint" />
          </mxGeometry>
        </mxCell>
        <mxCell id="4zOhWpi7Tp3pZV_hhRQo-6" value="find all guest lockers" style="rounded=0;whiteSpace=wrap;html=1;" vertex="1" parent="1">
          <mxGeometry x="140" y="480" width="120" height="60" as="geometry" />
        </mxCell>
        <mxCell id="4zOhWpi7Tp3pZV_hhRQo-24" style="edgeStyle=orthogonalEdgeStyle;rounded=0;orthogonalLoop=1;jettySize=auto;html=1;exitX=0.5;exitY=1;exitDx=0;exitDy=0;entryX=0.5;entryY=0;entryDx=0;entryDy=0;fontColor=#000000;" edge="1" parent="1" source="4zOhWpi7Tp3pZV_hhRQo-7" target="4zOhWpi7Tp3pZV_hhRQo-23">
          <mxGeometry relative="1" as="geometry" />
        </mxCell>
        <mxCell id="4zOhWpi7Tp3pZV_hhRQo-7" value="&lt;span&gt;find all guest lockers&lt;/span&gt;" style="rounded=0;whiteSpace=wrap;html=1;" vertex="1" parent="1">
          <mxGeometry x="660" y="390" width="120" height="60" as="geometry" />
        </mxCell>
        <mxCell id="4zOhWpi7Tp3pZV_hhRQo-8" value="is guest creating?" style="endArrow=classic;html=1;rounded=0;exitX=0.5;exitY=1;exitDx=0;exitDy=0;entryX=0.5;entryY=0;entryDx=0;entryDy=0;fillColor=#d5e8d4;strokeColor=#82b366;" edge="1" parent="1" source="4zOhWpi7Tp3pZV_hhRQo-2" target="4zOhWpi7Tp3pZV_hhRQo-21">
          <mxGeometry width="50" height="50" relative="1" as="geometry">
            <mxPoint x="460" y="440" as="sourcePoint" />
            <mxPoint x="510" y="390" as="targetPoint" />
          </mxGeometry>
        </mxCell>
        <mxCell id="4zOhWpi7Tp3pZV_hhRQo-9" value="is guest updating?" style="endArrow=classic;html=1;rounded=0;exitX=1;exitY=0.5;exitDx=0;exitDy=0;entryX=0.5;entryY=0;entryDx=0;entryDy=0;fillColor=#f8cecc;strokeColor=#b85450;" edge="1" parent="1" source="4zOhWpi7Tp3pZV_hhRQo-2" target="4zOhWpi7Tp3pZV_hhRQo-7">
          <mxGeometry width="50" height="50" relative="1" as="geometry">
            <mxPoint x="460" y="440" as="sourcePoint" />
            <mxPoint x="510" y="390" as="targetPoint" />
            <Array as="points">
              <mxPoint x="630" y="305" />
              <mxPoint x="720" y="305" />
            </Array>
          </mxGeometry>
        </mxCell>
        <mxCell id="4zOhWpi7Tp3pZV_hhRQo-19" style="edgeStyle=orthogonalEdgeStyle;rounded=0;orthogonalLoop=1;jettySize=auto;html=1;exitX=0.5;exitY=1;exitDx=0;exitDy=0;entryX=0.5;entryY=0;entryDx=0;entryDy=0;fontColor=#7F00FF;" edge="1" parent="1" source="4zOhWpi7Tp3pZV_hhRQo-14" target="4zOhWpi7Tp3pZV_hhRQo-15">
          <mxGeometry relative="1" as="geometry" />
        </mxCell>
        <mxCell id="4zOhWpi7Tp3pZV_hhRQo-20" style="edgeStyle=orthogonalEdgeStyle;rounded=0;orthogonalLoop=1;jettySize=auto;html=1;exitX=1;exitY=0.5;exitDx=0;exitDy=0;entryX=0.5;entryY=0;entryDx=0;entryDy=0;fontColor=#7F00FF;" edge="1" parent="1" source="4zOhWpi7Tp3pZV_hhRQo-14" target="4zOhWpi7Tp3pZV_hhRQo-5">
          <mxGeometry relative="1" as="geometry" />
        </mxCell>
        <mxCell id="4zOhWpi7Tp3pZV_hhRQo-14" value="i = 0; i &amp;lt; lockers.length; i++" style="shape=hexagon;perimeter=hexagonPerimeter2;whiteSpace=wrap;html=1;fixedSize=1;" vertex="1" parent="1">
          <mxGeometry x="114.5" y="570" width="171" height="80" as="geometry" />
        </mxCell>
        <mxCell id="4zOhWpi7Tp3pZV_hhRQo-18" style="edgeStyle=orthogonalEdgeStyle;rounded=0;orthogonalLoop=1;jettySize=auto;html=1;exitX=0;exitY=0.5;exitDx=0;exitDy=0;entryX=0;entryY=0.5;entryDx=0;entryDy=0;" edge="1" parent="1" source="4zOhWpi7Tp3pZV_hhRQo-15" target="4zOhWpi7Tp3pZV_hhRQo-14">
          <mxGeometry relative="1" as="geometry" />
        </mxCell>
        <mxCell id="4zOhWpi7Tp3pZV_hhRQo-15" value="send message&lt;br&gt;&lt;font color=&quot;#0000ff&quot;&gt;&amp;lt;HOTEL_BASE_TOPIC&amp;gt;/&amp;lt;LOCKER_ID&amp;gt;/card/add&lt;/font&gt;&lt;br&gt;&lt;font color=&quot;#7f00ff&quot;&gt;{ cards =&amp;gt; guest cards, roomId =&amp;gt; guest roomId, cardType =&amp;gt; &#39;guest&#39;, lang =&amp;gt; guest lang, towelLimit =&amp;gt; guest towel limit }&lt;/font&gt;" style="rounded=0;whiteSpace=wrap;html=1;" vertex="1" parent="1">
          <mxGeometry x="40" y="720" width="320" height="130" as="geometry" />
        </mxCell>
        <mxCell id="4zOhWpi7Tp3pZV_hhRQo-22" style="edgeStyle=orthogonalEdgeStyle;rounded=0;orthogonalLoop=1;jettySize=auto;html=1;exitX=0.5;exitY=1;exitDx=0;exitDy=0;entryX=0.5;entryY=0;entryDx=0;entryDy=0;fontColor=#000000;" edge="1" parent="1" source="4zOhWpi7Tp3pZV_hhRQo-21" target="4zOhWpi7Tp3pZV_hhRQo-6">
          <mxGeometry relative="1" as="geometry" />
        </mxCell>
        <mxCell id="4zOhWpi7Tp3pZV_hhRQo-21" value="&lt;font color=&quot;#000000&quot;&gt;update guest room&lt;/font&gt;&lt;br&gt;isOccupied =&amp;gt; true&lt;br&gt;lastCheckIn =&amp;gt; current date" style="rounded=0;whiteSpace=wrap;html=1;fontColor=#7F00FF;" vertex="1" parent="1">
          <mxGeometry x="140" y="390" width="120" height="60" as="geometry" />
        </mxCell>
        <mxCell id="4zOhWpi7Tp3pZV_hhRQo-31" style="edgeStyle=orthogonalEdgeStyle;rounded=0;orthogonalLoop=1;jettySize=auto;html=1;exitX=1;exitY=0.5;exitDx=0;exitDy=0;entryX=0.5;entryY=0;entryDx=0;entryDy=0;fontColor=#000000;fillColor=#f8cecc;strokeColor=#b85450;" edge="1" parent="1" source="4zOhWpi7Tp3pZV_hhRQo-23" target="4zOhWpi7Tp3pZV_hhRQo-26">
          <mxGeometry relative="1" as="geometry" />
        </mxCell>
        <mxCell id="4zOhWpi7Tp3pZV_hhRQo-38" style="edgeStyle=orthogonalEdgeStyle;rounded=0;orthogonalLoop=1;jettySize=auto;html=1;exitX=0.5;exitY=1;exitDx=0;exitDy=0;entryX=0.5;entryY=0;entryDx=0;entryDy=0;fontColor=#000000;fillColor=#d5e8d4;strokeColor=#82b366;" edge="1" parent="1" source="4zOhWpi7Tp3pZV_hhRQo-23" target="4zOhWpi7Tp3pZV_hhRQo-33">
          <mxGeometry relative="1" as="geometry" />
        </mxCell>
        <mxCell id="4zOhWpi7Tp3pZV_hhRQo-23" value="is card adding" style="rhombus;whiteSpace=wrap;html=1;fontColor=#000000;" vertex="1" parent="1">
          <mxGeometry x="645" y="480" width="150" height="80" as="geometry" />
        </mxCell>
        <mxCell id="4zOhWpi7Tp3pZV_hhRQo-25" style="edgeStyle=orthogonalEdgeStyle;rounded=0;orthogonalLoop=1;jettySize=auto;html=1;exitX=0.5;exitY=1;exitDx=0;exitDy=0;entryX=0.5;entryY=0;entryDx=0;entryDy=0;" edge="1" parent="1" source="4zOhWpi7Tp3pZV_hhRQo-26" target="4zOhWpi7Tp3pZV_hhRQo-28">
          <mxGeometry relative="1" as="geometry">
            <mxPoint x="1100" y="630" as="targetPoint" />
          </mxGeometry>
        </mxCell>
        <mxCell id="4zOhWpi7Tp3pZV_hhRQo-26" value="find all guest lockers" style="rounded=0;whiteSpace=wrap;html=1;" vertex="1" parent="1">
          <mxGeometry x="1040" y="600" width="120" height="60" as="geometry" />
        </mxCell>
        <mxCell id="4zOhWpi7Tp3pZV_hhRQo-27" style="edgeStyle=orthogonalEdgeStyle;rounded=0;orthogonalLoop=1;jettySize=auto;html=1;exitX=0.5;exitY=1;exitDx=0;exitDy=0;entryX=0.5;entryY=0;entryDx=0;entryDy=0;fontColor=#7F00FF;" edge="1" parent="1" source="4zOhWpi7Tp3pZV_hhRQo-28" target="4zOhWpi7Tp3pZV_hhRQo-30">
          <mxGeometry relative="1" as="geometry" />
        </mxCell>
        <mxCell id="4zOhWpi7Tp3pZV_hhRQo-44" style="edgeStyle=orthogonalEdgeStyle;rounded=0;orthogonalLoop=1;jettySize=auto;html=1;exitX=1;exitY=0.5;exitDx=0;exitDy=0;entryX=1;entryY=0.5;entryDx=0;entryDy=0;fontColor=#000000;" edge="1" parent="1" source="4zOhWpi7Tp3pZV_hhRQo-28" target="4zOhWpi7Tp3pZV_hhRQo-5">
          <mxGeometry relative="1" as="geometry">
            <Array as="points">
              <mxPoint x="1280" y="730" />
              <mxPoint x="1280" y="1215" />
            </Array>
          </mxGeometry>
        </mxCell>
        <mxCell id="4zOhWpi7Tp3pZV_hhRQo-28" value="i = 0; i &amp;lt; lockers.length; i++" style="shape=hexagon;perimeter=hexagonPerimeter2;whiteSpace=wrap;html=1;fixedSize=1;" vertex="1" parent="1">
          <mxGeometry x="1014.5" y="690" width="171" height="80" as="geometry" />
        </mxCell>
        <mxCell id="4zOhWpi7Tp3pZV_hhRQo-29" style="edgeStyle=orthogonalEdgeStyle;rounded=0;orthogonalLoop=1;jettySize=auto;html=1;exitX=0;exitY=0.5;exitDx=0;exitDy=0;entryX=0;entryY=0.5;entryDx=0;entryDy=0;" edge="1" parent="1" source="4zOhWpi7Tp3pZV_hhRQo-30" target="4zOhWpi7Tp3pZV_hhRQo-28">
          <mxGeometry relative="1" as="geometry" />
        </mxCell>
        <mxCell id="4zOhWpi7Tp3pZV_hhRQo-30" value="send message&lt;br&gt;&lt;font color=&quot;#0000ff&quot;&gt;&amp;lt;HOTEL_BASE_TOPIC&amp;gt;/&amp;lt;LOCKER_ID&amp;gt;/card/remove&lt;/font&gt;&lt;br&gt;&lt;font color=&quot;#7f00ff&quot;&gt;{ cards =&amp;gt; guest cards to remove }&lt;/font&gt;" style="rounded=0;whiteSpace=wrap;html=1;" vertex="1" parent="1">
          <mxGeometry x="940" y="840" width="320" height="130" as="geometry" />
        </mxCell>
        <mxCell id="4zOhWpi7Tp3pZV_hhRQo-32" style="edgeStyle=orthogonalEdgeStyle;rounded=0;orthogonalLoop=1;jettySize=auto;html=1;exitX=0.5;exitY=1;exitDx=0;exitDy=0;entryX=0.5;entryY=0;entryDx=0;entryDy=0;" edge="1" parent="1" source="4zOhWpi7Tp3pZV_hhRQo-33" target="4zOhWpi7Tp3pZV_hhRQo-35">
          <mxGeometry relative="1" as="geometry">
            <mxPoint x="720" y="630" as="targetPoint" />
          </mxGeometry>
        </mxCell>
        <mxCell id="4zOhWpi7Tp3pZV_hhRQo-33" value="find all guest lockers" style="rounded=0;whiteSpace=wrap;html=1;" vertex="1" parent="1">
          <mxGeometry x="660" y="600" width="120" height="60" as="geometry" />
        </mxCell>
        <mxCell id="4zOhWpi7Tp3pZV_hhRQo-34" style="edgeStyle=orthogonalEdgeStyle;rounded=0;orthogonalLoop=1;jettySize=auto;html=1;exitX=0.5;exitY=1;exitDx=0;exitDy=0;entryX=0.5;entryY=0;entryDx=0;entryDy=0;fontColor=#7F00FF;" edge="1" parent="1" source="4zOhWpi7Tp3pZV_hhRQo-35" target="4zOhWpi7Tp3pZV_hhRQo-37">
          <mxGeometry relative="1" as="geometry" />
        </mxCell>
        <mxCell id="4zOhWpi7Tp3pZV_hhRQo-42" style="edgeStyle=orthogonalEdgeStyle;rounded=0;orthogonalLoop=1;jettySize=auto;html=1;exitX=1;exitY=0.5;exitDx=0;exitDy=0;entryX=1;entryY=0.5;entryDx=0;entryDy=0;fontColor=#000000;" edge="1" parent="1" source="4zOhWpi7Tp3pZV_hhRQo-35" target="4zOhWpi7Tp3pZV_hhRQo-5">
          <mxGeometry relative="1" as="geometry">
            <Array as="points">
              <mxPoint x="890" y="730" />
              <mxPoint x="890" y="1215" />
            </Array>
          </mxGeometry>
        </mxCell>
        <mxCell id="4zOhWpi7Tp3pZV_hhRQo-35" value="i = 0; i &amp;lt; lockers.length; i++" style="shape=hexagon;perimeter=hexagonPerimeter2;whiteSpace=wrap;html=1;fixedSize=1;" vertex="1" parent="1">
          <mxGeometry x="634.5" y="690" width="171" height="80" as="geometry" />
        </mxCell>
        <mxCell id="4zOhWpi7Tp3pZV_hhRQo-36" style="edgeStyle=orthogonalEdgeStyle;rounded=0;orthogonalLoop=1;jettySize=auto;html=1;exitX=0;exitY=0.5;exitDx=0;exitDy=0;entryX=0;entryY=0.5;entryDx=0;entryDy=0;" edge="1" parent="1" source="4zOhWpi7Tp3pZV_hhRQo-37" target="4zOhWpi7Tp3pZV_hhRQo-35">
          <mxGeometry relative="1" as="geometry" />
        </mxCell>
        <mxCell id="4zOhWpi7Tp3pZV_hhRQo-37" value="send message&lt;br&gt;&lt;font color=&quot;#0000ff&quot;&gt;&amp;lt;HOTEL_BASE_TOPIC&amp;gt;/&amp;lt;LOCKER_ID&amp;gt;/card/add&lt;/font&gt;&lt;br&gt;&lt;font color=&quot;#7f00ff&quot;&gt;{ cards =&amp;gt; guest cards to add, roomId =&amp;gt; guest roomId, cardType =&amp;gt; &#39;guest&#39;, lang =&amp;gt; guest lang, towelLimit =&amp;gt; guest towel limit }&lt;/font&gt;" style="rounded=0;whiteSpace=wrap;html=1;" vertex="1" parent="1">
          <mxGeometry x="560" y="840" width="320" height="130" as="geometry" />
        </mxCell>
        <mxCell id="4zOhWpi7Tp3pZV_hhRQo-45" style="edgeStyle=orthogonalEdgeStyle;rounded=0;orthogonalLoop=1;jettySize=auto;html=1;exitX=0.5;exitY=1;exitDx=0;exitDy=0;entryX=0.5;entryY=0;entryDx=0;entryDy=0;" edge="1" parent="1" source="4zOhWpi7Tp3pZV_hhRQo-46" target="4zOhWpi7Tp3pZV_hhRQo-48">
          <mxGeometry relative="1" as="geometry">
            <mxPoint x="1490" y="540" as="targetPoint" />
          </mxGeometry>
        </mxCell>
        <mxCell id="4zOhWpi7Tp3pZV_hhRQo-46" value="find all guest lockers" style="rounded=0;whiteSpace=wrap;html=1;" vertex="1" parent="1">
          <mxGeometry x="1430" y="510" width="120" height="60" as="geometry" />
        </mxCell>
        <mxCell id="4zOhWpi7Tp3pZV_hhRQo-47" style="edgeStyle=orthogonalEdgeStyle;rounded=0;orthogonalLoop=1;jettySize=auto;html=1;exitX=0.5;exitY=1;exitDx=0;exitDy=0;entryX=0.5;entryY=0;entryDx=0;entryDy=0;fontColor=#7F00FF;" edge="1" parent="1" source="4zOhWpi7Tp3pZV_hhRQo-48" target="4zOhWpi7Tp3pZV_hhRQo-50">
          <mxGeometry relative="1" as="geometry" />
        </mxCell>
        <mxCell id="4zOhWpi7Tp3pZV_hhRQo-53" style="edgeStyle=orthogonalEdgeStyle;rounded=0;orthogonalLoop=1;jettySize=auto;html=1;exitX=1;exitY=0.5;exitDx=0;exitDy=0;entryX=1;entryY=0.5;entryDx=0;entryDy=0;fontColor=#000000;" edge="1" parent="1" source="4zOhWpi7Tp3pZV_hhRQo-48" target="4zOhWpi7Tp3pZV_hhRQo-5">
          <mxGeometry relative="1" as="geometry">
            <Array as="points">
              <mxPoint x="1680" y="640" />
              <mxPoint x="1680" y="1215" />
            </Array>
          </mxGeometry>
        </mxCell>
        <mxCell id="4zOhWpi7Tp3pZV_hhRQo-48" value="i = 0; i &amp;lt; lockers.length; i++" style="shape=hexagon;perimeter=hexagonPerimeter2;whiteSpace=wrap;html=1;fixedSize=1;" vertex="1" parent="1">
          <mxGeometry x="1404.5" y="600" width="171" height="80" as="geometry" />
        </mxCell>
        <mxCell id="4zOhWpi7Tp3pZV_hhRQo-49" style="edgeStyle=orthogonalEdgeStyle;rounded=0;orthogonalLoop=1;jettySize=auto;html=1;exitX=0;exitY=0.5;exitDx=0;exitDy=0;entryX=0;entryY=0.5;entryDx=0;entryDy=0;" edge="1" parent="1" source="4zOhWpi7Tp3pZV_hhRQo-50" target="4zOhWpi7Tp3pZV_hhRQo-48">
          <mxGeometry relative="1" as="geometry" />
        </mxCell>
        <mxCell id="4zOhWpi7Tp3pZV_hhRQo-50" value="send message&lt;br&gt;&lt;font color=&quot;#0000ff&quot;&gt;&amp;lt;HOTEL_BASE_TOPIC&amp;gt;/&amp;lt;LOCKER_ID&amp;gt;/room/remove&lt;/font&gt;&lt;br&gt;&lt;font color=&quot;#7f00ff&quot;&gt;{ roomId =&amp;gt; guest roomId }&lt;/font&gt;" style="rounded=0;whiteSpace=wrap;html=1;" vertex="1" parent="1">
          <mxGeometry x="1330" y="750" width="320" height="130" as="geometry" />
        </mxCell>
        <mxCell id="4zOhWpi7Tp3pZV_hhRQo-54" style="edgeStyle=orthogonalEdgeStyle;rounded=0;orthogonalLoop=1;jettySize=auto;html=1;exitX=0.5;exitY=1;exitDx=0;exitDy=0;entryX=0.5;entryY=0;entryDx=0;entryDy=0;" edge="1" parent="1" source="4zOhWpi7Tp3pZV_hhRQo-55" target="4zOhWpi7Tp3pZV_hhRQo-57">
          <mxGeometry relative="1" as="geometry">
            <mxPoint x="1920" y="540" as="targetPoint" />
          </mxGeometry>
        </mxCell>
        <mxCell id="4zOhWpi7Tp3pZV_hhRQo-55" value="find all housekeeping lockers" style="rounded=0;whiteSpace=wrap;html=1;" vertex="1" parent="1">
          <mxGeometry x="1860" y="510" width="120" height="60" as="geometry" />
        </mxCell>
        <mxCell id="4zOhWpi7Tp3pZV_hhRQo-56" style="edgeStyle=orthogonalEdgeStyle;rounded=0;orthogonalLoop=1;jettySize=auto;html=1;exitX=0.5;exitY=1;exitDx=0;exitDy=0;entryX=0.5;entryY=0;entryDx=0;entryDy=0;fontColor=#7F00FF;" edge="1" parent="1" source="4zOhWpi7Tp3pZV_hhRQo-57" target="4zOhWpi7Tp3pZV_hhRQo-59">
          <mxGeometry relative="1" as="geometry" />
        </mxCell>
        <mxCell id="4zOhWpi7Tp3pZV_hhRQo-66" style="edgeStyle=orthogonalEdgeStyle;rounded=0;orthogonalLoop=1;jettySize=auto;html=1;exitX=1;exitY=0.5;exitDx=0;exitDy=0;entryX=1;entryY=0.5;entryDx=0;entryDy=0;fontColor=#000000;" edge="1" parent="1" source="4zOhWpi7Tp3pZV_hhRQo-57" target="4zOhWpi7Tp3pZV_hhRQo-5">
          <mxGeometry relative="1" as="geometry">
            <Array as="points">
              <mxPoint x="2100" y="640" />
              <mxPoint x="2100" y="1215" />
            </Array>
          </mxGeometry>
        </mxCell>
        <mxCell id="4zOhWpi7Tp3pZV_hhRQo-57" value="i = 0; i &amp;lt; lockers.length; i++" style="shape=hexagon;perimeter=hexagonPerimeter2;whiteSpace=wrap;html=1;fixedSize=1;" vertex="1" parent="1">
          <mxGeometry x="1834.5" y="600" width="171" height="80" as="geometry" />
        </mxCell>
        <mxCell id="4zOhWpi7Tp3pZV_hhRQo-58" style="edgeStyle=orthogonalEdgeStyle;rounded=0;orthogonalLoop=1;jettySize=auto;html=1;exitX=0;exitY=0.5;exitDx=0;exitDy=0;entryX=0;entryY=0.5;entryDx=0;entryDy=0;" edge="1" parent="1" source="4zOhWpi7Tp3pZV_hhRQo-59" target="4zOhWpi7Tp3pZV_hhRQo-57">
          <mxGeometry relative="1" as="geometry" />
        </mxCell>
        <mxCell id="4zOhWpi7Tp3pZV_hhRQo-59" value="send message&lt;br&gt;&lt;font color=&quot;#0000ff&quot;&gt;&amp;lt;HOTEL_BASE_TOPIC&amp;gt;/&amp;lt;LOCKER_ID&amp;gt;/card/add&lt;/font&gt;&lt;br&gt;&lt;font color=&quot;#7f00ff&quot;&gt;{ cards =&amp;gt; housekeeping cards, cardType =&amp;gt; &#39;housekeeping&#39; }&lt;/font&gt;" style="rounded=0;whiteSpace=wrap;html=1;" vertex="1" parent="1">
          <mxGeometry x="1760" y="750" width="320" height="130" as="geometry" />
        </mxCell>
        <mxCell id="4zOhWpi7Tp3pZV_hhRQo-60" style="edgeStyle=orthogonalEdgeStyle;rounded=0;orthogonalLoop=1;jettySize=auto;html=1;exitX=0.5;exitY=1;exitDx=0;exitDy=0;entryX=0.5;entryY=0;entryDx=0;entryDy=0;" edge="1" parent="1" source="4zOhWpi7Tp3pZV_hhRQo-61" target="4zOhWpi7Tp3pZV_hhRQo-63">
          <mxGeometry relative="1" as="geometry">
            <mxPoint x="2320" y="540" as="targetPoint" />
          </mxGeometry>
        </mxCell>
        <mxCell id="4zOhWpi7Tp3pZV_hhRQo-61" value="find all housekeeping lockers" style="rounded=0;whiteSpace=wrap;html=1;" vertex="1" parent="1">
          <mxGeometry x="2260" y="510" width="120" height="60" as="geometry" />
        </mxCell>
        <mxCell id="4zOhWpi7Tp3pZV_hhRQo-62" style="edgeStyle=orthogonalEdgeStyle;rounded=0;orthogonalLoop=1;jettySize=auto;html=1;exitX=0.5;exitY=1;exitDx=0;exitDy=0;entryX=0.5;entryY=0;entryDx=0;entryDy=0;fontColor=#7F00FF;" edge="1" parent="1" source="4zOhWpi7Tp3pZV_hhRQo-63" target="4zOhWpi7Tp3pZV_hhRQo-65">
          <mxGeometry relative="1" as="geometry" />
        </mxCell>
        <mxCell id="4zOhWpi7Tp3pZV_hhRQo-68" style="edgeStyle=orthogonalEdgeStyle;rounded=0;orthogonalLoop=1;jettySize=auto;html=1;exitX=1;exitY=0.5;exitDx=0;exitDy=0;entryX=1;entryY=0.5;entryDx=0;entryDy=0;fontColor=#000000;" edge="1" parent="1" source="4zOhWpi7Tp3pZV_hhRQo-63" target="4zOhWpi7Tp3pZV_hhRQo-5">
          <mxGeometry relative="1" as="geometry">
            <Array as="points">
              <mxPoint x="2490" y="640" />
              <mxPoint x="2490" y="1215" />
            </Array>
          </mxGeometry>
        </mxCell>
        <mxCell id="4zOhWpi7Tp3pZV_hhRQo-63" value="i = 0; i &amp;lt; lockers.length; i++" style="shape=hexagon;perimeter=hexagonPerimeter2;whiteSpace=wrap;html=1;fixedSize=1;" vertex="1" parent="1">
          <mxGeometry x="2234.5" y="600" width="171" height="80" as="geometry" />
        </mxCell>
        <mxCell id="4zOhWpi7Tp3pZV_hhRQo-64" style="edgeStyle=orthogonalEdgeStyle;rounded=0;orthogonalLoop=1;jettySize=auto;html=1;exitX=0;exitY=0.5;exitDx=0;exitDy=0;entryX=0;entryY=0.5;entryDx=0;entryDy=0;" edge="1" parent="1" source="4zOhWpi7Tp3pZV_hhRQo-65" target="4zOhWpi7Tp3pZV_hhRQo-63">
          <mxGeometry relative="1" as="geometry" />
        </mxCell>
        <mxCell id="4zOhWpi7Tp3pZV_hhRQo-65" value="send message&lt;br&gt;&lt;font color=&quot;#0000ff&quot;&gt;&amp;lt;HOTEL_BASE_TOPIC&amp;gt;/&amp;lt;LOCKER_ID&amp;gt;/card/remove&lt;/font&gt;&lt;br&gt;&lt;font color=&quot;#7f00ff&quot;&gt;{ cards =&amp;gt; housekeeping cards to remove }&lt;/font&gt;" style="rounded=0;whiteSpace=wrap;html=1;" vertex="1" parent="1">
          <mxGeometry x="2160" y="750" width="320" height="130" as="geometry" />
        </mxCell>
      </root>
    </mxGraphModel>
  </diagram>
</mxfile>
